<svg width="16" height="16" viewBox="0 0 16 16" fill="none" xmlns="http://www.w3.org/2000/svg">
<g id='wrangler'>
<g clip-path="url(#clip0_507_386)">
<path d="M5.08527 3.1583L6.49907 5.7493L5.20073 8.12344C5.13857 8.23682 5.10594 8.36445 5.10594 8.49423C5.10594 8.624 5.13857 8.75163 5.20073 8.86501L6.49907 11.245L5.08532 13.836C4.8193 13.7021 4.59838 13.4909 4.45054 13.2293L2.20012 9.25773C2.069 9.02583 2 8.76308 2 8.49566C2 8.22823 2.069 7.96548 2.20012 7.73358L4.45059 3.76201C4.59886 3.5015 4.81974 3.2914 5.08537 3.1582L5.08527 3.1583Z" fill="url(#paint0_linear_507_386)"/>
<path opacity="0.7" d="M5.20076 8.12639C5.13913 8.2394 5.10679 8.36648 5.10679 8.49568C5.10679 8.62487 5.13913 8.75195 5.20076 8.86496L6.4991 11.245L5.08535 13.836C4.81933 13.7021 4.59841 13.4909 4.45057 13.2293L2.20015 9.25772C2.02127 8.9441 3.02243 8.56891 5.2008 8.12925V8.12634L5.20076 8.12639Z" fill="url(#paint1_linear_507_386)"/>
<path d="M11.5482 3.76205L13.7987 7.73362C14.067 8.20257 14.067 8.78881 13.7987 9.25776L11.5482 13.2293C11.4166 13.4608 11.2274 13.6532 10.9995 13.7869C10.7716 13.9207 10.5131 13.9912 10.2499 13.9914L9 14L11.7987 8.87362C11.8603 8.7606 11.8926 8.63352 11.8926 8.50431C11.8926 8.3751 11.8603 8.24802 11.7987 8.135L9 3H10.2499C10.5131 3.00017 10.7716 3.07068 10.9995 3.20443C11.2274 3.33819 11.4166 3.5305 11.5482 3.76205Z" fill="url(#paint2_linear_507_386)"/>
<path d="M5.74894 13.9914C5.51812 13.9914 5.28726 13.9357 5.08533 13.836L7.86089 8.75067C7.90347 8.67264 7.92581 8.58488 7.92581 8.49567C7.92581 8.40645 7.90347 8.3187 7.86089 8.24067L5.08533 3.15829C5.29165 3.0545 5.51871 3.00034 5.74894 3H7.99941L10.7981 8.12638C10.8597 8.23939 10.892 8.36647 10.892 8.49567C10.892 8.62486 10.8597 8.75194 10.7981 8.86495L7.99941 13.9914L5.74894 13.9914Z" fill="#FF851C"/>
</g>
<defs>
<linearGradient id="paint0_linear_507_386" x1="226.954" y1="1070.94" x2="-244.403" y2="324.74" gradientUnits="userSpaceOnUse">
<stop stop-color="#EB6F07"/>
<stop offset="1" stop-color="#FAB743"/>
</linearGradient>
<linearGradient id="paint1_linear_507_386" x1="352.042" y1="486.025" x2="110.933" y2="241.93" gradientUnits="userSpaceOnUse">
<stop stop-color="#D96504"/>
<stop offset="1" stop-color="#D96504" stop-opacity="0"/>
</linearGradient>
<linearGradient id="paint2_linear_507_386" x1="308.027" y1="1102.14" x2="-115.26" y2="233.9" gradientUnits="userSpaceOnUse">
<stop stop-color="#EE6F05"/>
<stop offset="1" stop-color="#FAB743"/>
</linearGradient>
<clipPath id="clip0_507_386">
<rect width="12" height="11" fill="white" transform="translate(2 3)"/>
</clipPath>
</defs>
</g>
</svg>